<?xml version="1.0" encoding="UTF-8" standalone="no"?>
<!DOCTYPE svg PUBLIC "-//W3C//DTD SVG 1.1//EN" "http://www.w3.org/Graphics/SVG/1.1/DTD/svg11.dtd">
<svg version="1.1" xmlns="http://www.w3.org/2000/svg" xmlns:xlink="http://www.w3.org/1999/xlink" preserveAspectRatio="xMidYMid meet" viewBox="0 0 640 640" width="1000" height="1000"><defs><path d="M556.68 0C602.69 0 640 37.31 640 83.32C640 143.22 640 292.95 640 532.51L0 532.51C0 292.95 0 143.22 0 83.32C0 37.31 37.31 0 83.32 0C194.66 0 445.34 0 556.68 0Z" id="c2FCpNWsz"></path><path d="M185.65 274.28L333.22 205.06L454.35 463.3L306.78 532.51L185.65 274.28Z" id="b6V1pBqLa5"></path><path d="M0 532.51L640 532.51C640 544.33 640 551.72 640 554.67C640 601.8 601.8 640 554.67 640C443.74 640 196.26 640 85.33 640C38.2 640 0 601.8 0 554.67C0 551.72 0 544.33 0 532.51Z" id="atX5DgsYg"></path><path d="M462.39 165.04C472.03 168.23 477.25 178.62 474.06 188.25C472.9 191.74 475.21 184.76 474.06 188.25C470.87 197.89 460.48 203.11 450.84 199.92C412.47 187.21 314.8 154.87 276.43 142.17C266.8 138.98 261.58 128.59 264.77 118.95C265.92 115.47 263.61 122.44 264.77 118.95C267.96 109.32 278.35 104.1 287.98 107.29C326.35 119.99 424.02 152.33 462.39 165.04Z" id="c2k2ZSjYJj"></path><linearGradient id="gradientb1TSpHaws5" gradientUnits="userSpaceOnUse" x1="414.77" y1="162.96" x2="361.67" y2="157.02"><stop style="stop-color: #2bbac3;stop-opacity: 1" offset="0%"></stop><stop style="stop-color: #39999b;stop-opacity: 1" offset="100%"></stop></linearGradient><path d="M462.39 165.04C472.03 168.23 477.25 178.62 474.06 188.25C472.9 191.74 475.21 184.76 474.06 188.25C470.87 197.89 460.48 203.11 450.84 199.92C412.47 187.21 314.8 154.87 276.43 142.17C266.8 138.98 261.58 128.59 264.77 118.95C265.92 115.47 263.61 122.44 264.77 118.95C267.96 109.32 278.35 104.1 287.98 107.29C326.35 119.99 424.02 152.33 462.39 165.04Z" id="bkK66A59q"></path><path d="M218.45 200.38C170.32 184.45 144.19 132.44 160.12 84.31C176.06 36.18 228.07 10.04 276.2 25.98C324.33 41.91 350.47 93.92 334.53 142.05C318.59 190.18 266.58 216.32 218.45 200.38Z" id="b3pIzvfob"></path><path d="M218.45 200.38C170.32 184.45 144.19 132.44 160.12 84.31C176.06 36.18 228.07 10.04 276.2 25.98C324.33 41.91 350.47 93.92 334.53 142.05C318.59 190.18 266.58 216.32 218.45 200.38Z" id="bFYS6KEUm"></path><path d="M224.23 182.94C185.72 170.2 164.81 128.58 177.56 90.08C190.31 51.58 231.92 30.67 270.43 43.42C308.93 56.17 329.84 97.78 317.09 136.28C304.34 174.78 262.73 195.69 224.23 182.94Z" id="a4xL3uWBT"></path><linearGradient id="gradiente1A7K3gdqz" gradientUnits="userSpaceOnUse" x1="193.41" y1="119.78" x2="303.34" y2="101.34"><stop style="stop-color: #e8faff;stop-opacity: 1" offset="0%"></stop><stop style="stop-color: #b1ffff;stop-opacity: 1" offset="100%"></stop></linearGradient><path d="M224.23 182.94C185.72 170.2 164.81 128.58 177.56 90.08C190.31 51.58 231.92 30.67 270.43 43.42C308.93 56.17 329.84 97.78 317.09 136.28C304.34 174.78 262.73 195.69 224.23 182.94Z" id="b4plTp0AcP"></path><path d="M242.88 154.28C245.42 155.12 246.79 157.86 245.95 160.4C243.95 166.45 239.45 180.04 237.44 186.1C236.6 188.63 233.87 190.01 231.33 189.17C227.11 187.77 219.03 185.09 214.81 183.7C212.28 182.86 210.9 180.12 211.74 177.59C213.75 171.53 218.25 157.94 220.25 151.89C221.09 149.35 223.83 147.98 226.36 148.82C230.58 150.21 238.66 152.89 242.88 154.28Z" id="c6h683JoUj"></path><path d="M242.88 154.28C245.42 155.12 246.79 157.86 245.95 160.4C243.95 166.45 239.45 180.04 237.44 186.1C236.6 188.63 233.87 190.01 231.33 189.17C227.11 187.77 219.03 185.09 214.81 183.7C212.28 182.86 210.9 180.12 211.74 177.59C213.75 171.53 218.25 157.94 220.25 151.89C221.09 149.35 223.83 147.98 226.36 148.82C230.58 150.21 238.66 152.89 242.88 154.28Z" id="csXdB8Esc"></path><path d="M279.84 42.66C282.38 43.5 283.75 46.24 282.91 48.78C280.9 54.83 276.41 68.42 274.4 74.47C273.56 77.01 270.83 78.38 268.29 77.54C264.07 76.15 255.99 73.47 251.77 72.07C249.24 71.24 247.86 68.5 248.7 65.96C250.71 59.91 255.2 46.32 257.21 40.27C258.05 37.73 260.78 36.35 263.32 37.19C267.54 38.59 275.62 41.27 279.84 42.66Z" id="bnTcwu9wG"></path><path d="M279.84 42.66C282.38 43.5 283.75 46.24 282.91 48.78C280.9 54.83 276.41 68.42 274.4 74.47C273.56 77.01 270.83 78.38 268.29 77.54C264.07 76.15 255.99 73.47 251.77 72.07C249.24 71.24 247.86 68.5 248.7 65.96C250.71 59.91 255.2 46.32 257.21 40.27C258.05 37.73 260.78 36.35 263.32 37.19C267.54 38.59 275.62 41.27 279.84 42.66Z" id="beBAo01bP"></path><path d="M333.99 117.42C336.53 118.27 337.91 121.01 337.07 123.55C334.46 131.45 328.14 150.52 325.53 158.41C324.68 160.96 321.94 162.34 319.4 161.49C314.64 159.92 304.95 156.71 300.19 155.13C297.65 154.29 296.27 151.55 297.11 149.01C299.73 141.11 306.04 122.04 308.65 114.14C309.5 111.6 312.24 110.22 314.78 111.06C319.54 112.64 329.23 115.85 333.99 117.42Z" id="a48mfqpEl"></path><path d="M333.99 117.42C336.53 118.27 337.91 121.01 337.07 123.55C334.46 131.45 328.14 150.52 325.53 158.41C324.68 160.96 321.94 162.34 319.4 161.49C314.64 159.92 304.95 156.71 300.19 155.13C297.65 154.29 296.27 151.55 297.11 149.01C299.73 141.11 306.04 122.04 308.65 114.14C309.5 111.6 312.24 110.22 314.78 111.06C319.54 112.64 329.23 115.85 333.99 117.42Z" id="b2lAacHjOo"></path><path d="M263.57 108.84C265.84 109.59 267.06 112.03 266.31 114.29C265.42 116.98 264.11 120.94 263.22 123.62C262.47 125.88 260.04 127.1 257.78 126.36C238.51 119.98 184.79 102.19 165.52 95.81C163.26 95.06 162.04 92.62 162.79 90.36C163.68 87.68 164.99 83.72 165.88 81.04C166.62 78.78 169.06 77.55 171.32 78.3C190.59 84.68 244.31 102.46 263.57 108.84Z" id="aa4F1tMZGy"></path><path d="M263.57 108.84C265.84 109.59 267.06 112.03 266.31 114.29C265.42 116.98 264.11 120.94 263.22 123.62C262.47 125.88 260.04 127.1 257.78 126.36C238.51 119.98 184.79 102.19 165.52 95.81C163.26 95.06 162.04 92.62 162.79 90.36C163.68 87.68 164.99 83.72 165.88 81.04C166.62 78.78 169.06 77.55 171.32 78.3C190.59 84.68 244.31 102.46 263.57 108.84Z" id="aEnkp1Vi9"></path><path d="M405.56 126.04L474.99 148.13L452.9 217.57L383.46 195.47L405.56 126.04Z" id="b8JD61RTH"></path></defs><g><g><g><use xlink:href="#c2FCpNWsz" opacity="1" fill="#88cdeb" fill-opacity="1"></use></g><g><use xlink:href="#b6V1pBqLa5" opacity="1" fill="#0000ff" fill-opacity="1"></use></g><g><use xlink:href="#atX5DgsYg" opacity="1" fill="#008002" fill-opacity="1"></use></g><g><g><use xlink:href="#c2k2ZSjYJj" opacity="1" fill="url(#gradientb1TSpHaws5)"></use><g><use xlink:href="#c2k2ZSjYJj" opacity="1" fill-opacity="0" stroke="#000000" stroke-width="1" stroke-opacity="0"></use></g></g><g><use xlink:href="#bkK66A59q" opacity="1" fill="#000000" fill-opacity="0"></use><g><use xlink:href="#bkK66A59q" opacity="1" fill-opacity="0" stroke="#000000" stroke-width="1" stroke-opacity="0"></use></g></g><g><use xlink:href="#b3pIzvfob" opacity="1" fill="#73d6d7" fill-opacity="1"></use><g><use xlink:href="#b3pIzvfob" opacity="1" fill-opacity="0" stroke="#000000" stroke-width="1" stroke-opacity="0"></use></g></g><g><use xlink:href="#bFYS6KEUm" opacity="1" fill="#000000" fill-opacity="0"></use><g><use xlink:href="#bFYS6KEUm" opacity="1" fill-opacity="0" stroke="#000000" stroke-width="1" stroke-opacity="0"></use></g></g><g><use xlink:href="#a4xL3uWBT" opacity="1" fill="url(#gradiente1A7K3gdqz)"></use><g><use xlink:href="#a4xL3uWBT" opacity="1" fill-opacity="0" stroke="#000000" stroke-width="1" stroke-opacity="0"></use></g></g><g><use xlink:href="#b4plTp0AcP" opacity="1" fill="#000000" fill-opacity="0"></use><g><use xlink:href="#b4plTp0AcP" opacity="1" fill-opacity="0" stroke="#000000" stroke-width="1" stroke-opacity="0"></use></g></g><g><use xlink:href="#c6h683JoUj" opacity="1" fill="#73d6d7" fill-opacity="1"></use><g><use xlink:href="#c6h683JoUj" opacity="1" fill-opacity="0" stroke="#000000" stroke-width="1" stroke-opacity="0"></use></g></g><g><use xlink:href="#csXdB8Esc" opacity="1" fill="#000000" fill-opacity="0"></use><g><use xlink:href="#csXdB8Esc" opacity="1" fill-opacity="0" stroke="#000000" stroke-width="1" stroke-opacity="0"></use></g></g><g><use xlink:href="#bnTcwu9wG" opacity="1" fill="#73d6d7" fill-opacity="1"></use><g><use xlink:href="#bnTcwu9wG" opacity="1" fill-opacity="0" stroke="#000000" stroke-width="1" stroke-opacity="0"></use></g></g><g><use xlink:href="#beBAo01bP" opacity="1" fill="#000000" fill-opacity="0"></use><g><use xlink:href="#beBAo01bP" opacity="1" fill-opacity="0" stroke="#000000" stroke-width="1" stroke-opacity="0"></use></g></g><g><use xlink:href="#a48mfqpEl" opacity="1" fill="#73d6d7" fill-opacity="1"></use><g><use xlink:href="#a48mfqpEl" opacity="1" fill-opacity="0" stroke="#000000" stroke-width="1" stroke-opacity="0"></use></g></g><g><use xlink:href="#b2lAacHjOo" opacity="1" fill="#000000" fill-opacity="0"></use><g><use xlink:href="#b2lAacHjOo" opacity="1" fill-opacity="0" stroke="#000000" stroke-width="1" stroke-opacity="0"></use></g></g><g><use xlink:href="#aa4F1tMZGy" opacity="1" fill="#73d6d7" fill-opacity="1"></use><g><use xlink:href="#aa4F1tMZGy" opacity="1" fill-opacity="0" stroke="#000000" stroke-width="1" stroke-opacity="0"></use></g></g><g><use xlink:href="#aEnkp1Vi9" opacity="1" fill="#000000" fill-opacity="0"></use><g><use xlink:href="#aEnkp1Vi9" opacity="1" fill-opacity="0" stroke="#000000" stroke-width="1" stroke-opacity="0"></use></g></g></g><g><use xlink:href="#b8JD61RTH" opacity="1" fill="#0000ff" fill-opacity="1"></use></g></g></g></svg>