<?xml version="1.0" encoding="UTF-8" standalone="no"?>
<!DOCTYPE svg PUBLIC "-//W3C//DTD SVG 1.1//EN" "http://www.w3.org/Graphics/SVG/1.1/DTD/svg11.dtd">
<svg version="1.1" xmlns="http://www.w3.org/2000/svg" xmlns:xlink="http://www.w3.org/1999/xlink" preserveAspectRatio="xMidYMid meet" viewBox="0 0 50 700" width="150" height="2100"><defs><path d="M0 0L10 0L10 700L0 700L0 0Z" id="a4v5ZfcgP7"></path><path d="M20 0L30 0L30 700L20 700L20 0Z" id="h54hbylw4"></path><path d="M10 0L20 0L20 700L10 700L10 0Z" id="a9VKSBoJs"></path><path d="M30 0L40 0L40 700L30 700L30 0Z" id="d8Zq8OIm30"></path><path d="M40 0L50 0L50 700L40 700L40 0Z" id="gcLGt2oUJa"></path><path d="M15 364.71L49.23 364.71L49.23 411.22L15 411.22L15 364.71Z" id="gtOiGjKdN"></path><path d="M20.61 372.05L43.61 372.05L43.61 403.89L20.61 403.89L20.61 372.05Z" id="i1ImzgY4FC"></path></defs><g><g><g><use xlink:href="#a4v5ZfcgP7" opacity="1" fill="#876242" fill-opacity="1"></use></g><g><use xlink:href="#h54hbylw4" opacity="1" fill="#996f4a" fill-opacity="1"></use></g><g><use xlink:href="#a9VKSBoJs" opacity="1" fill="#815d3d" fill-opacity="1"></use></g><g><use xlink:href="#d8Zq8OIm30" opacity="1" fill="#8f6a46" fill-opacity="1"></use></g><g><use xlink:href="#gcLGt2oUJa" opacity="1" fill="#7b5c3d" fill-opacity="1"></use></g><g><use xlink:href="#gtOiGjKdN" opacity="1" fill="#996f4a" fill-opacity="1"></use></g><g><use xlink:href="#i1ImzgY4FC" opacity="1" fill="#60482f" fill-opacity="1"></use></g></g></g></svg>