<?xml version="1.0" encoding="UTF-8" standalone="no"?>
<!DOCTYPE svg PUBLIC "-//W3C//DTD SVG 1.1//EN" "http://www.w3.org/Graphics/SVG/1.1/DTD/svg11.dtd">
<svg version="1.1" xmlns="http://www.w3.org/2000/svg" xmlns:xlink="http://www.w3.org/1999/xlink" preserveAspectRatio="xMidYMid meet" viewBox="0 0 100 100" width="100" height="100"><defs><path d="M44.27 67.07L25.71 85.64L18.7 78.63L37.26 60.06L37.26 60.06L44.27 67.07ZM65 15.41L65.73 15.6L66.45 15.84L67.15 16.14L67.83 16.5L68.49 16.93L69.12 17.41L69.71 17.95L74.54 22.78L77.75 19.58L84.76 26.59L81.55 29.8L92.97 41.21L86.38 47.79L74.97 36.38L59.75 51.6L52.74 44.59L67.96 29.37L56.54 17.95L57.13 17.41L57.76 16.93L58.41 16.5L59.1 16.14L59.8 15.84L60.52 15.6L61.25 15.41L62 15.29L62.75 15.23L63.5 15.23L64.25 15.29L65 15.41ZM7.03 38.22L15.46 29.8L12.25 26.59L19.26 19.58L22.47 22.78L30.89 14.36L37.47 20.95L29.05 29.37L48.5 48.82L78.31 78.63L71.3 85.64L41.49 55.83L22.04 36.38L16.35 42.06L7.03 38.22ZM49.53 47.79L52.74 44.59L52.74 44.59L49.53 47.79Z" id="caAXQaKgg"></path></defs><g><g><g><use xlink:href="#caAXQaKgg" opacity="1" fill="#ffffff" fill-opacity="0.5"></use></g></g></g></svg>