<?xml version="1.0" encoding="UTF-8" standalone="no"?>
<!DOCTYPE svg PUBLIC "-//W3C//DTD SVG 1.1//EN" "http://www.w3.org/Graphics/SVG/1.1/DTD/svg11.dtd">
<svg version="1.1" xmlns="http://www.w3.org/2000/svg" xmlns:xlink="http://www.w3.org/1999/xlink" preserveAspectRatio="xMidYMid meet" viewBox="0 0 20 20" width="100" height="100"><defs><path d="M10 1.87L10.06 1.88L11 1.95L11.87 2.14L12.65 2.46L13.33 2.9L13.91 3.43L14.37 4.06L14.72 4.77L14.93 5.56L15 6.41L14.98 6.96L14.89 7.5L14.75 8.02L14.54 8.52L14.28 8.99L13.96 9.43L13.59 9.83L13.17 10.18L12.71 10.49L12.27 10.78L11.91 11.06L11.61 11.34L11.37 11.61L11.18 11.88L11.05 12.17L10.96 12.48L10.91 12.82L10.89 13.2L10.89 13.88L8.38 13.88L8.38 13.07L8.35 12.55L8.4 12.04L8.51 11.54L8.68 11.07L8.91 10.62L9.2 10.21L9.54 9.83L9.94 9.5L10.38 9.23L10.79 8.94L11.15 8.66L11.44 8.39L11.68 8.11L11.86 7.84L12 7.54L12.1 7.23L12.15 6.89L12.17 6.52L12.14 6.14L12.05 5.78L11.9 5.45L11.7 5.15L11.45 4.9L11.16 4.68L10.84 4.52L10.49 4.42L10.11 4.38L10.09 4.38L9.92 4.38L9.51 4.4L9.11 4.49L8.75 4.65L8.42 4.86L8.13 5.13L7.89 5.44L7.71 5.8L7.59 6.18L7.54 6.59L7.54 6.61L7.54 6.77L5 6.77L5.04 5.92L5.23 5.12L5.55 4.37L5.98 3.7L6.53 3.11L7.17 2.62L7.88 2.24L8.67 1.99L9.51 1.88L9.57 1.87L9.63 1.87L9.69 1.87L9.75 1.87L9.82 1.87L9.88 1.87L9.94 1.87L9.94 1.87L10 1.87Z" id="bmh1WKkZV"></path><path d="M10.98 16.78C10.98 17.53 10.38 18.13 9.64 18.13C8.89 18.13 8.29 17.53 8.29 16.78C8.29 16.04 8.89 15.44 9.64 15.44C10.38 15.44 10.98 16.04 10.98 16.78Z" id="c1fVVi8RSo"></path></defs><g><g><g><use xlink:href="#bmh1WKkZV" opacity="1" fill="#ffffff" fill-opacity="0.5"></use><g><use xlink:href="#bmh1WKkZV" opacity="1" fill-opacity="0" stroke="#000000" stroke-width="1" stroke-opacity="0"></use></g></g><g><use xlink:href="#c1fVVi8RSo" opacity="1" fill="#ffffff" fill-opacity="0.5"></use></g></g></g></svg>