<?xml version="1.0" encoding="UTF-8" standalone="no"?>
<!DOCTYPE svg PUBLIC "-//W3C//DTD SVG 1.1//EN" "http://www.w3.org/Graphics/SVG/1.1/DTD/svg11.dtd">
<svg version="1.1" xmlns="http://www.w3.org/2000/svg" xmlns:xlink="http://www.w3.org/1999/xlink" preserveAspectRatio="xMidYMid meet" viewBox="0 0 100 100" width="100" height="100"><defs><path d="M45.41 32.03L45.41 39.34L24.7 39.34L24.7 15.87L75.3 15.87L75.3 39.34L54.59 39.34L54.59 32.03L45.41 32.03Z" id="ik8SkbSpO"></path><path d="M47.68 34.73L52.32 34.73L52.32 50L47.68 50L47.68 34.73Z" id="a4rqKa64MV"></path><path d="M78.43 19.28L83.06 19.28L83.06 80.02L78.43 80.02L78.43 19.28Z" id="ah6OIN6v7"></path><path d="M24.7 84.13L24.7 46.16L75.3 46.16L75.3 84.13L24.7 84.13ZM34.18 76.49L65.82 76.49L65.82 59.88L34.18 59.88L34.18 76.49ZM45.41 52.71L54.59 52.71L54.59 46.16L45.41 46.16L45.41 52.71Z" id="c5h8x7CBis"></path><path d="M37.9 63.58L62.1 63.58L62.1 73.39L37.9 73.39L37.9 63.58Z" id="a1MoQrqaYH"></path></defs><g><g><g><use xlink:href="#ik8SkbSpO" opacity="1" fill="#ffffff" fill-opacity="0.5"></use></g><g><use xlink:href="#a4rqKa64MV" opacity="1" fill="#ffffff" fill-opacity="0.5"></use></g><g><use xlink:href="#ah6OIN6v7" opacity="1" fill="#ffffff" fill-opacity="0.5"></use></g><g><use xlink:href="#c5h8x7CBis" opacity="1" fill="#ffffff" fill-opacity="0.5"></use></g><g><use xlink:href="#a1MoQrqaYH" opacity="1" fill="#ffffff" fill-opacity="0.5"></use></g></g></g></svg>