<?xml version="1.0" encoding="UTF-8" standalone="no"?>
<!DOCTYPE svg PUBLIC "-//W3C//DTD SVG 1.1//EN" "http://www.w3.org/Graphics/SVG/1.1/DTD/svg11.dtd">
<svg version="1.1" xmlns="http://www.w3.org/2000/svg" xmlns:xlink="http://www.w3.org/1999/xlink" preserveAspectRatio="xMidYMid meet" viewBox="0 0 100 100" width="100" height="100"><defs><path d="M72.85 36.64L73.46 37.73L74.01 38.84L74.51 39.99L74.96 41.16L75.35 42.36L75.69 43.58L75.75 43.88L87.65 43.88L87.65 56.12L75.75 56.12L75.69 56.42L75.35 57.64L74.96 58.84L74.51 60.01L74.01 61.16L73.46 62.27L72.85 63.36L72.53 63.88L82.3 73.65L73.65 82.3L63.88 72.53L63.36 72.85L62.27 73.46L61.16 74.01L60.01 74.51L58.84 74.96L57.64 75.35L56.42 75.69L56.12 75.75L56.12 87.65L43.88 87.65L43.88 75.75L43.58 75.69L42.36 75.35L41.16 74.96L39.99 74.51L38.84 74.01L37.73 73.46L36.64 72.85L36.12 72.53L26.35 82.3L17.7 73.65L27.47 63.88L27.15 63.36L26.54 62.27L25.99 61.16L25.49 60.01L25.04 58.84L24.65 57.64L24.31 56.42L24.25 56.12L12.35 56.12L12.35 43.88L24.25 43.88L24.31 43.58L24.65 42.36L25.04 41.16L25.49 39.99L25.99 38.84L26.54 37.73L27.15 36.64L27.47 36.12L17.7 26.35L26.35 17.7L36.12 27.47L36.64 27.15L37.73 26.54L38.84 25.99L39.99 25.49L41.16 25.04L42.36 24.65L43.58 24.31L43.88 24.25L43.88 12.35L56.12 12.35L56.12 24.25L56.42 24.31L57.64 24.65L58.84 25.04L60.01 25.49L61.16 25.99L62.27 26.54L63.36 27.15L63.88 27.47L73.65 17.7L82.3 26.35L72.53 36.12L72.85 36.64ZM47.39 35.72L46.14 36.01L44.94 36.4L43.78 36.89L42.68 37.47L41.63 38.15L40.65 38.9L39.74 39.74L38.9 40.65L38.15 41.63L37.47 42.68L36.89 43.78L36.4 44.94L36.01 46.14L35.72 47.39L35.55 48.68L35.49 50L35.55 51.32L35.72 52.61L36.01 53.86L36.4 55.06L36.89 56.22L37.47 57.32L38.15 58.37L38.9 59.35L39.74 60.26L40.65 61.1L41.63 61.85L42.68 62.53L43.78 63.11L44.94 63.6L46.14 63.99L47.39 64.28L48.68 64.45L50 64.51L51.32 64.45L52.61 64.28L53.86 63.99L55.06 63.6L56.22 63.11L57.32 62.53L58.37 61.85L59.35 61.1L60.26 60.26L61.1 59.35L61.85 58.37L62.53 57.32L63.11 56.22L63.6 55.06L63.99 53.86L64.28 52.61L64.45 51.32L64.51 50L64.45 48.68L64.28 47.39L63.99 46.14L63.6 44.94L63.11 43.78L62.53 42.68L61.85 41.63L61.1 40.65L60.26 39.74L59.35 38.9L58.37 38.15L57.32 37.47L56.22 36.89L55.06 36.4L53.86 36.01L52.61 35.72L51.32 35.55L50 35.49L48.68 35.55L47.39 35.72Z" id="a1c1dmeSeY"></path></defs><g><g><g><use xlink:href="#a1c1dmeSeY" opacity="1" fill="#ffffff" fill-opacity="0.5"></use></g></g></g></svg>