<?xml version="1.0" encoding="UTF-8" standalone="no"?>
<!DOCTYPE svg PUBLIC "-//W3C//DTD SVG 1.1//EN" "http://www.w3.org/Graphics/SVG/1.1/DTD/svg11.dtd">
<svg version="1.1" xmlns="http://www.w3.org/2000/svg" xmlns:xlink="http://www.w3.org/1999/xlink" preserveAspectRatio="xMidYMid meet" viewBox="0 0 900 900" width="900" height="900"><defs><path d="M500 350C500 460 500 740 500 850C500 877.62 477.61 900 450 900C440 900 460 900 450 900C422.38 900 400 877.62 400 850C400 740 400 460 400 350C400 322.39 422.38 300 450 300C460 300 440 300 450 300C477.61 300 500 322.39 500 350Z" id="c2eANPpCfv"></path><linearGradient id="gradientf5d6OEhatx" gradientUnits="userSpaceOnUse" x1="464.63" y1="725.2" x2="434.55" y2="582.93"><stop style="stop-color: #2bbac3;stop-opacity: 1" offset="0%"></stop><stop style="stop-color: #39999b;stop-opacity: 1" offset="100%"></stop></linearGradient><path d="M450 500C312.02 500 200 387.98 200 250C200 112.02 312.02 0 450 0C587.98 0 700 112.02 700 250C700 387.98 587.98 500 450 500Z" id="k6MzaX3ie"></path><path d="M450 450C339.62 450 250 360.39 250 250C250 139.62 339.62 50 450 50C560.38 50 650 139.62 650 250C650 360.39 560.38 450 450 450Z" id="c3GFaa7bl1"></path><linearGradient id="gradienta6G6nqNk5N" gradientUnits="userSpaceOnUse" x1="386.83" y1="116.36" x2="528.5" y2="384.58"><stop style="stop-color: #e8faff;stop-opacity: 1" offset="0%"></stop><stop style="stop-color: #b1ffff;stop-opacity: 1" offset="100%"></stop></linearGradient><path d="M340 226.32C340 238.42 340 261.58 340 273.68C340 280.95 334.1 286.84 326.83 286.84C309.47 286.84 270.53 286.84 253.16 286.84C245.89 286.84 240 280.95 240 273.68C240 261.58 240 238.42 240 226.32C240 219.05 245.89 213.16 253.16 213.16C270.53 213.16 309.47 213.16 326.83 213.16C334.1 213.16 340 219.05 340 226.32Z" id="b81ubc5KUW"></path><path d="M660 226.32C660 238.42 660 261.58 660 273.68C660 280.95 654.1 286.84 646.83 286.84C629.47 286.84 590.53 286.84 573.16 286.84C565.89 286.84 560 280.95 560 273.68C560 261.58 560 238.42 560 226.32C560 219.05 565.89 213.16 573.16 213.16C590.53 213.16 629.47 213.16 646.83 213.16C654.1 213.16 660 219.05 660 226.32Z" id="a19UGUw1d2"></path><path d="M513.17 422.47C513.17 436.12 513.17 463.88 513.17 477.53C513.17 484.82 507.26 490.73 499.97 490.73C477.34 490.73 422.66 490.73 400.03 490.73C392.74 490.73 386.83 484.82 386.83 477.53C386.83 463.88 386.83 436.12 386.83 422.47C386.83 415.18 392.74 409.27 400.03 409.27C422.66 409.27 477.34 409.27 499.97 409.27C507.26 409.27 513.17 415.18 513.17 422.47Z" id="dxjkr9VtZ"></path><path d="M475.1 23.8C475.1 79.04 475.1 233.03 475.1 288.27C475.1 294.75 469.84 300 463.36 300C455.67 300 444.32 300 436.63 300C430.15 300 424.9 294.75 424.9 288.27C424.9 233.03 424.9 79.04 424.9 23.8C424.9 17.32 430.15 12.07 436.63 12.07C444.32 12.07 455.67 12.07 463.36 12.07C469.84 12.07 475.1 17.32 475.1 23.8Z" id="anRUBeCKj"></path></defs><g><g><g><use xlink:href="#c2eANPpCfv" opacity="1" fill="url(#gradientf5d6OEhatx)"></use><g><use xlink:href="#c2eANPpCfv" opacity="1" fill-opacity="0" stroke="#000000" stroke-width="1" stroke-opacity="0"></use></g></g><g><use xlink:href="#k6MzaX3ie" opacity="1" fill="#73d6d7" fill-opacity="1"></use><g><use xlink:href="#k6MzaX3ie" opacity="1" fill-opacity="0" stroke="#000000" stroke-width="1" stroke-opacity="0"></use></g></g><g><use xlink:href="#c3GFaa7bl1" opacity="1" fill="url(#gradienta6G6nqNk5N)"></use><g><use xlink:href="#c3GFaa7bl1" opacity="1" fill-opacity="0" stroke="#000000" stroke-width="1" stroke-opacity="0"></use></g></g><g><use xlink:href="#b81ubc5KUW" opacity="1" fill="#73d6d7" fill-opacity="1"></use><g><use xlink:href="#b81ubc5KUW" opacity="1" fill-opacity="0" stroke="#000000" stroke-width="1" stroke-opacity="0"></use></g></g><g><use xlink:href="#a19UGUw1d2" opacity="1" fill="#73d6d7" fill-opacity="1"></use><g><use xlink:href="#a19UGUw1d2" opacity="1" fill-opacity="0" stroke="#000000" stroke-width="1" stroke-opacity="0"></use></g></g><g><use xlink:href="#dxjkr9VtZ" opacity="1" fill="#73d6d7" fill-opacity="1"></use><g><use xlink:href="#dxjkr9VtZ" opacity="1" fill-opacity="0" stroke="#000000" stroke-width="1" stroke-opacity="0"></use></g></g><g><use xlink:href="#anRUBeCKj" opacity="1" fill="#73d6d7" fill-opacity="1"></use><g><use xlink:href="#anRUBeCKj" opacity="1" fill-opacity="0" stroke="#000000" stroke-width="1" stroke-opacity="0"></use></g></g></g></g></svg>