<?xml version="1.0" encoding="UTF-8" standalone="no"?>
<!DOCTYPE svg PUBLIC "-//W3C//DTD SVG 1.1//EN" "http://www.w3.org/Graphics/SVG/1.1/DTD/svg11.dtd">
<svg version="1.1" xmlns="http://www.w3.org/2000/svg" xmlns:xlink="http://www.w3.org/1999/xlink" preserveAspectRatio="xMidYMid meet" viewBox="0 0 900 900" width="900" height="900"><defs><path d="M476.48 279.5L513.76 286.58L436.06 695.49L398.77 688.41L476.48 279.5Z" id="a3sVLPlh"></path><path d="M398.77 659.51L436.5 659.51L436.5 903.6L398.77 903.6L398.77 659.51Z" id="gd19ktaxV"></path><path d="M593.84 458.55L571.98 434.07L436.5 547.7L458.36 572.18L593.84 458.55Z" id="a1h4zuQ4V1"></path><path d="" id="b32IFTvPwd"></path><path d="M607.77 428.86L574.81 437.59L584.22 470.94L617.18 462.22L607.77 428.86Z" id="a8ZXzLEM7"></path><path d="M629.79 343.71L564.48 361L583.61 428.86L648.92 411.57L629.79 343.71Z" id="a1Kc8O4K8d"></path><path d="M571.47 410.76L538.51 419.49L547.92 452.84L580.87 444.12L571.47 410.76Z" id="e81R9hWsZd"></path><path d="M646.38 396.17L585.54 412.27L594.44 443.86L655.29 427.75L646.38 396.17Z" id="e6L1N630Lp"></path><path d="M578.41 352.66L547.95 361.35L570.1 434.23L600.56 425.54L578.41 352.66Z" id="a75lyx2iC"></path><path d="M592.08 417.25L553.53 427.45L564.53 466.47L603.08 456.26L592.08 417.25Z" id="dt9qYKzTU"></path><path d="M536.94 213.37L477.92 270.84L537.3 329.9L596.32 272.42L536.94 213.37Z" id="bh5BMyO2c"></path><path d="M482.24 8L365.29 121.89L486.09 242.04L603.05 128.14L482.24 8Z" id="azlXRJCGN"></path><path d="M439.05 218.35L380.03 275.82L439.41 334.88L498.43 277.4L439.05 218.35Z" id="bbWuvPTGw"></path><path d="M539.5 137.61L470.46 204.84L526.69 260.76L595.73 193.53L539.5 137.61Z" id="d2RQe8a3kd"></path><path d="M438.02 138.73L382.22 195.18L462.03 271.4L517.82 214.95L438.02 138.73Z" id="a1yB8bBk6t"></path><path d="M490.13 207.54L421.09 274.77L490.55 343.85L559.59 276.61L490.13 207.54Z" id="b7SU9Ly37"></path><path d="M596.82 69.34L521.06 143.11L590.52 212.19L666.27 138.41L596.82 69.34Z" id="e1cQJyLQ8m"></path><path d="M380.72 79.46L314.03 144.41L390.25 220.22L456.95 155.27L380.72 79.46Z" id="a1tPHpCKzV"></path><path d="M287.25 506.98L318.12 484.91L436.5 650.5L405.62 672.57L287.25 506.98Z" id="ceqKbSItO"></path><path d="" id="fEuMF3Iqd"></path><path d="M280.03 469.44L314.03 488.16L294.47 523.67L260.47 504.95L280.03 469.44Z" id="c10jPbse8L"></path><path d="M325.09 458.48L359.09 477.2L339.53 512.71L305.54 493.99L325.09 458.48Z" id="b1MsXaV2hO"></path><path d="M276.18 435.85L310.18 454.57L290.62 490.08L256.62 471.36L276.18 435.85Z" id="e4k20nwNeV"></path><path d="M312.62 413.73L349.37 434.92L320.15 485.6L283.4 464.4L312.62 413.73Z" id="e1igcTMFDW"></path><path d="M300.55 460.38L334.55 479.1L314.99 514.61L280.99 495.89L300.55 460.38Z" id="icppBOxkK"></path><path d="M282.1 376.51L332.31 404.16L302.7 457.94L252.48 430.29L282.1 376.51Z" id="d1eGhUAQq6"></path><path d="M280.26 372.53L307.1 387.31L291.27 416.06L264.42 401.28L280.26 372.53Z" id="lIAa8NvXP"></path></defs><g><g><g><use xlink:href="#a3sVLPlh" opacity="1" fill="#6b442e" fill-opacity="1"></use></g><g><use xlink:href="#gd19ktaxV" opacity="1" fill="#6b442e" fill-opacity="1"></use></g><g><g><use xlink:href="#a1h4zuQ4V1" opacity="1" fill="#6b442e" fill-opacity="1"></use></g><g><g><use xlink:href="#b32IFTvPwd" opacity="1" fill-opacity="0" stroke="#000000" stroke-width="1" stroke-opacity="1"></use></g></g><g><use xlink:href="#a8ZXzLEM7" opacity="1" fill="#986c51" fill-opacity="1"></use></g><g><use xlink:href="#a1Kc8O4K8d" opacity="1" fill="#e9e9dd" fill-opacity="1"></use></g><g><use xlink:href="#e81R9hWsZd" opacity="1" fill="#986c51" fill-opacity="1"></use></g><g><use xlink:href="#e6L1N630Lp" opacity="1" fill="#986c51" fill-opacity="1"></use></g><g><use xlink:href="#a75lyx2iC" opacity="1" fill="#986c51" fill-opacity="1"></use></g><g><use xlink:href="#dt9qYKzTU" opacity="1" fill="#986c51" fill-opacity="1"></use></g></g><g><g><use xlink:href="#bh5BMyO2c" opacity="1" fill="#986c51" fill-opacity="1"></use></g><g><use xlink:href="#azlXRJCGN" opacity="1" fill="#e9e9dd" fill-opacity="1"></use></g><g><use xlink:href="#bbWuvPTGw" opacity="1" fill="#986c51" fill-opacity="1"></use></g><g><use xlink:href="#d2RQe8a3kd" opacity="1" fill="#986c51" fill-opacity="1"></use></g><g><use xlink:href="#a1yB8bBk6t" opacity="1" fill="#986c51" fill-opacity="1"></use></g><g><use xlink:href="#b7SU9Ly37" opacity="1" fill="#986c51" fill-opacity="1"></use></g><g><use xlink:href="#e1cQJyLQ8m" opacity="1" fill="#e9e9dd" fill-opacity="1"></use></g><g><use xlink:href="#a1tPHpCKzV" opacity="1" fill="#e9e9dd" fill-opacity="1"></use></g></g><g><g><use xlink:href="#ceqKbSItO" opacity="1" fill="#6b442e" fill-opacity="1"></use></g><g><g><use xlink:href="#fEuMF3Iqd" opacity="1" fill-opacity="0" stroke="#000000" stroke-width="1" stroke-opacity="1"></use></g></g><g><use xlink:href="#c10jPbse8L" opacity="1" fill="#986c51" fill-opacity="1"></use></g><g><use xlink:href="#b1MsXaV2hO" opacity="1" fill="#986c51" fill-opacity="1"></use></g><g><use xlink:href="#e4k20nwNeV" opacity="1" fill="#986c51" fill-opacity="1"></use></g><g><use xlink:href="#e1igcTMFDW" opacity="1" fill="#986c51" fill-opacity="1"></use></g><g><use xlink:href="#icppBOxkK" opacity="1" fill="#986c51" fill-opacity="1"></use></g><g><use xlink:href="#d1eGhUAQq6" opacity="1" fill="#986c51" fill-opacity="1"></use></g><g><use xlink:href="#lIAa8NvXP" opacity="1" fill="#e9e9dd" fill-opacity="1"></use></g></g></g></g></svg>