<?xml version="1.0" encoding="UTF-8" standalone="no"?>
<!DOCTYPE svg PUBLIC "-//W3C//DTD SVG 1.1//EN" "http://www.w3.org/Graphics/SVG/1.1/DTD/svg11.dtd">
<svg version="1.1" xmlns="http://www.w3.org/2000/svg" xmlns:xlink="http://www.w3.org/1999/xlink" preserveAspectRatio="xMidYMid meet" viewBox="0 0 800 1400" width="800" height="1400"><defs><path d="M180.63 219.42C180.63 98.3 278.93 0 399.95 0C521.07 0 619.37 98.3 619.37 219.42C619.37 340.44 521.07 438.75 399.95 438.75C278.93 438.75 180.63 340.44 180.63 219.42Z" id="b1ibo2awk"></path><path d="M180.63 219.42C180.63 98.3 278.93 0 399.95 0C521.07 0 619.37 98.3 619.37 219.42C619.37 340.44 521.07 438.75 399.95 438.75C278.93 438.75 180.63 340.44 180.63 219.42Z" id="b21ZMGL39F"></path><path d="M509.32 424.17C570.1 424.17 619.37 473.45 619.37 534.23C619.37 593.37 619.37 741.22 619.37 977.78L180.63 977.78C180.63 741.22 180.63 593.37 180.63 534.23C180.63 473.45 229.9 424.17 290.68 424.17C356.42 424.17 443.58 424.17 509.32 424.17Z" id="eaP1wH3mH"></path><path d="M457.59 825.28L619.37 825.28L619.37 1143.13L457.59 1143.13L457.59 825.28Z" id="aW6pfUHXd"></path><path d="M180.63 825.28L342.41 825.28L342.41 1143.13L180.63 1143.13L180.63 825.28Z" id="a1kgLHuy33"></path><path d="M457.59 1082.15L619.37 1082.15C619.37 1208.53 619.37 1287.51 619.37 1319.11C619.37 1363.78 583.15 1400 538.48 1400C522.3 1400 554.66 1400 538.48 1400C493.81 1400 457.59 1363.78 457.59 1319.11C457.59 1287.51 457.59 1208.53 457.59 1082.15Z" id="d23MzaDDvW"></path><path d="M180.63 1082.15L342.41 1082.15C342.41 1208.53 342.41 1287.51 342.41 1319.11C342.41 1363.78 306.19 1400 261.52 1400C245.34 1400 277.7 1400 261.52 1400C216.85 1400 180.63 1363.78 180.63 1319.11C180.63 1287.51 180.63 1208.53 180.63 1082.15Z" id="a55MNrQ0vj"></path></defs><g><g><g><use xlink:href="#b1ibo2awk" opacity="1" fill="#0000ff" fill-opacity="1"></use><g><use xlink:href="#b1ibo2awk" opacity="1" fill-opacity="0" stroke="#000000" stroke-width="1" stroke-opacity="0"></use></g></g><g><use xlink:href="#b21ZMGL39F" opacity="1" fill="#000000" fill-opacity="0"></use><g><use xlink:href="#b21ZMGL39F" opacity="1" fill-opacity="0" stroke="#000000" stroke-width="1" stroke-opacity="0"></use></g></g><g><use xlink:href="#eaP1wH3mH" opacity="1" fill="#0000ff" fill-opacity="1"></use></g><g><use xlink:href="#aW6pfUHXd" opacity="1" fill="#0000ff" fill-opacity="1"></use></g><g><use xlink:href="#a1kgLHuy33" opacity="1" fill="#0000ff" fill-opacity="1"></use></g><g><use xlink:href="#d23MzaDDvW" opacity="1" fill="#0000ff" fill-opacity="1"></use></g><g><use xlink:href="#a55MNrQ0vj" opacity="1" fill="#0000ff" fill-opacity="1"></use></g></g></g></svg>