<?xml version="1.0" encoding="UTF-8" standalone="no"?>
<!DOCTYPE svg PUBLIC "-//W3C//DTD SVG 1.1//EN" "http://www.w3.org/Graphics/SVG/1.1/DTD/svg11.dtd">
<svg version="1.1" xmlns="http://www.w3.org/2000/svg" xmlns:xlink="http://www.w3.org/1999/xlink" preserveAspectRatio="xMidYMid meet" viewBox="0 0 800 1400" width="800" height="1400"><defs><path d="M399.95 438.75C278.93 438.75 180.63 340.44 180.63 219.42C180.63 98.3 278.93 0 399.95 0C521.07 0 619.37 98.3 619.37 219.42C619.37 340.44 521.07 438.75 399.95 438.75Z" id="f1pqE7yioy"></path><path d="M232.08 1164.14L314.34 857.12L470.61 898.99L388.35 1206.01L232.08 1164.14Z" id="b4T8jbasnQ"></path><path d="M651.27 993L333.42 993L333.42 831.21L651.27 831.22L651.27 993Z" id="d2qhLvMEag"></path><path d="M256.2 1386.62C240.58 1382.44 271.83 1390.81 256.2 1386.62C213.06 1375.06 187.45 1330.7 199 1287.55C207.19 1257.03 227.62 1180.74 260.33 1058.66C291.59 1067.04 400.98 1096.35 416.61 1100.53C383.89 1222.61 363.45 1298.9 355.27 1329.42C343.71 1372.57 299.35 1398.18 256.2 1386.62Z" id="bsNiNmylD"></path><path d="M570.38 1149.07C554.2 1149.07 586.55 1149.07 570.38 1149.07C525.71 1149.07 489.49 1112.85 489.49 1068.18C489.49 1036.58 489.49 957.6 489.48 831.21C521.84 831.22 635.09 831.22 651.27 831.21C651.27 957.6 651.26 1036.58 651.27 1068.18C651.26 1112.85 615.04 1149.07 570.38 1149.07Z" id="c3dWakkLRP"></path><path d="M538.48 838.33C538.48 914.81 476.48 976.81 400 976.81C372.3 976.81 427.7 976.81 400 976.81C323.52 976.81 261.52 914.81 261.52 838.33C261.52 755.3 261.52 644.7 261.52 561.68C261.52 485.19 323.52 423.2 400 423.2C427.7 423.2 372.3 423.2 400 423.2C476.48 423.2 538.48 485.19 538.48 561.68C538.48 644.7 538.48 755.3 538.48 838.33Z" id="a1Yz4GRX7G"></path></defs><g><g><g><use xlink:href="#f1pqE7yioy" opacity="1" fill="#0000ff" fill-opacity="1"></use><g><use xlink:href="#f1pqE7yioy" opacity="1" fill-opacity="0" stroke="#000000" stroke-width="1" stroke-opacity="0"></use></g></g><g><use xlink:href="#b4T8jbasnQ" opacity="1" fill="#0000ff" fill-opacity="1"></use><g><use xlink:href="#b4T8jbasnQ" opacity="1" fill-opacity="0" stroke="#000000" stroke-width="1" stroke-opacity="0"></use></g></g><g><use xlink:href="#d2qhLvMEag" opacity="1" fill="#0000ff" fill-opacity="1"></use><g><use xlink:href="#d2qhLvMEag" opacity="1" fill-opacity="0" stroke="#000000" stroke-width="1" stroke-opacity="0"></use></g></g><g><use xlink:href="#bsNiNmylD" opacity="1" fill="#0000ff" fill-opacity="1"></use><g><use xlink:href="#bsNiNmylD" opacity="1" fill-opacity="0" stroke="#000000" stroke-width="1" stroke-opacity="0"></use></g></g><g><use xlink:href="#c3dWakkLRP" opacity="1" fill="#0000ff" fill-opacity="1"></use><g><use xlink:href="#c3dWakkLRP" opacity="1" fill-opacity="0" stroke="#000000" stroke-width="1" stroke-opacity="0"></use></g></g><g><use xlink:href="#a1Yz4GRX7G" opacity="1" fill="#0000ff" fill-opacity="1"></use><g><use xlink:href="#a1Yz4GRX7G" opacity="1" fill-opacity="0" stroke="#000000" stroke-width="1" stroke-opacity="0"></use></g></g></g></g></svg>