<?xml version="1.0" encoding="UTF-8" standalone="no"?>
<!DOCTYPE svg PUBLIC "-//W3C//DTD SVG 1.1//EN" "http://www.w3.org/Graphics/SVG/1.1/DTD/svg11.dtd">
<svg version="1.1" xmlns="http://www.w3.org/2000/svg" xmlns:xlink="http://www.w3.org/1999/xlink" preserveAspectRatio="xMidYMid meet" viewBox="0 0 800 1400" width="800" height="1400"><defs><path d="M399.95 438.75C278.93 438.75 180.63 340.44 180.63 219.42C180.63 98.3 278.93 0 399.95 0C521.07 0 619.37 98.3 619.37 219.42C619.37 340.44 521.07 438.75 399.95 438.75Z" id="f1pqE7yioy"></path><path d="M526.06 1166.74L301.3 941.99L415.7 827.59L640.46 1052.34L526.06 1166.74Z" id="bFjCJw5TU"></path><path d="M195.52 1140.72L277.78 833.7L434.06 875.57L351.78 1182.59L195.52 1140.72Z" id="b1Oc4O3nI"></path><path d="M764.89 1291.18C753.45 1302.61 776.33 1279.74 764.89 1291.18C733.31 1322.76 682.08 1322.76 650.49 1291.18C628.15 1268.83 572.3 1212.99 482.93 1123.62C505.82 1100.74 585.9 1020.66 597.33 1009.21C686.69 1098.59 742.54 1154.44 764.89 1176.78C796.47 1208.37 796.47 1259.59 764.89 1291.18Z" id="h1tJCMGZIQ"></path><path d="M69.88 1350.07C58.44 1338.63 81.32 1361.5 69.88 1350.07C38.3 1318.48 38.3 1267.26 69.88 1235.67C92.23 1213.33 148.08 1157.48 237.44 1068.1C260.31 1090.99 340.39 1171.07 351.84 1182.51C262.47 1271.88 206.62 1327.72 184.28 1350.07C152.69 1381.65 101.46 1381.65 69.88 1350.07Z" id="a2ebxThqOd"></path><path d="M538.48 838.33C538.48 914.81 476.48 976.81 400 976.81C372.3 976.81 427.7 976.81 400 976.81C323.52 976.81 261.52 914.81 261.52 838.33C261.52 755.3 261.52 644.7 261.52 561.68C261.52 485.19 323.52 423.2 400 423.2C427.7 423.2 372.3 423.2 400 423.2C476.48 423.2 538.48 485.19 538.48 561.68C538.48 644.7 538.48 755.3 538.48 838.33Z" id="a1Yz4GRX7G"></path></defs><g><g><g><use xlink:href="#f1pqE7yioy" opacity="1" fill="#0000ff" fill-opacity="1"></use><g><use xlink:href="#f1pqE7yioy" opacity="1" fill-opacity="0" stroke="#000000" stroke-width="1" stroke-opacity="0"></use></g></g><g><use xlink:href="#bFjCJw5TU" opacity="1" fill="#0000ff" fill-opacity="1"></use><g><use xlink:href="#bFjCJw5TU" opacity="1" fill-opacity="0" stroke="#000000" stroke-width="1" stroke-opacity="0"></use></g></g><g><use xlink:href="#b1Oc4O3nI" opacity="1" fill="#0000ff" fill-opacity="1"></use><g><use xlink:href="#b1Oc4O3nI" opacity="1" fill-opacity="0" stroke="#000000" stroke-width="1" stroke-opacity="0"></use></g></g><g><use xlink:href="#h1tJCMGZIQ" opacity="1" fill="#0000ff" fill-opacity="1"></use><g><use xlink:href="#h1tJCMGZIQ" opacity="1" fill-opacity="0" stroke="#000000" stroke-width="1" stroke-opacity="0"></use></g></g><g><use xlink:href="#a2ebxThqOd" opacity="1" fill="#0000ff" fill-opacity="1"></use><g><use xlink:href="#a2ebxThqOd" opacity="1" fill-opacity="0" stroke="#000000" stroke-width="1" stroke-opacity="0"></use></g></g><g><use xlink:href="#a1Yz4GRX7G" opacity="1" fill="#0000ff" fill-opacity="1"></use><g><use xlink:href="#a1Yz4GRX7G" opacity="1" fill-opacity="0" stroke="#000000" stroke-width="1" stroke-opacity="0"></use></g></g></g></g></svg>