<?xml version="1.0" encoding="UTF-8" standalone="no"?>
<!DOCTYPE svg PUBLIC "-//W3C//DTD SVG 1.1//EN" "http://www.w3.org/Graphics/SVG/1.1/DTD/svg11.dtd">
<svg version="1.1" xmlns="http://www.w3.org/2000/svg" xmlns:xlink="http://www.w3.org/1999/xlink" preserveAspectRatio="xMidYMid meet" viewBox="0 0 800 1400" width="800" height="1400"><defs><path d="M399.95 438.75C278.93 438.75 180.63 340.44 180.63 219.42C180.63 98.3 278.93 0 399.95 0C521.07 0 619.37 98.3 619.37 219.42C619.37 340.44 521.07 438.75 399.95 438.75Z" id="f1pqE7yioy"></path><path d="M338.27 1186.94L338.26 869.09L500.05 869.09L500.05 1186.94L338.27 1186.94Z" id="a1fA6JhkbS"></path><path d="M343.79 1149.82L261.52 842.8L417.8 800.92L500.05 1107.95L343.79 1149.82Z" id="d1fx56PNGc"></path><path d="M419.15 1395.59C402.98 1395.59 435.33 1395.59 419.15 1395.59C374.49 1395.59 338.27 1359.37 338.26 1314.7C338.27 1283.1 338.26 1204.12 338.26 1077.73C370.62 1077.74 483.87 1077.74 500.05 1077.73C500.04 1204.12 500.04 1283.1 500.04 1314.7C500.04 1359.37 463.82 1395.59 419.15 1395.59Z" id="aIVEfDdZi"></path><path d="M178 1075.66C178 1059.48 178 1091.83 178 1075.66C178 1030.99 214.22 994.77 258.89 994.77C290.49 994.77 369.47 994.77 495.86 994.76C495.85 1027.12 495.85 1140.37 495.86 1156.55C369.47 1156.55 290.49 1156.54 258.89 1156.55C214.22 1156.54 178 1120.32 178 1075.66Z" id="f2CrqSULmj"></path><path d="M538.48 838.33C538.48 914.81 476.48 976.81 400 976.81C372.3 976.81 427.7 976.81 400 976.81C323.52 976.81 261.52 914.81 261.52 838.33C261.52 755.3 261.52 644.7 261.52 561.68C261.52 485.19 323.52 423.2 400 423.2C427.7 423.2 372.3 423.2 400 423.2C476.48 423.2 538.48 485.19 538.48 561.68C538.48 644.7 538.48 755.3 538.48 838.33Z" id="a1Yz4GRX7G"></path></defs><g><g><g><use xlink:href="#f1pqE7yioy" opacity="1" fill="#0000ff" fill-opacity="1"></use><g><use xlink:href="#f1pqE7yioy" opacity="1" fill-opacity="0" stroke="#000000" stroke-width="1" stroke-opacity="0"></use></g></g><g><use xlink:href="#a1fA6JhkbS" opacity="1" fill="#0000ff" fill-opacity="1"></use><g><use xlink:href="#a1fA6JhkbS" opacity="1" fill-opacity="0" stroke="#000000" stroke-width="1" stroke-opacity="0"></use></g></g><g><use xlink:href="#d1fx56PNGc" opacity="1" fill="#0000ff" fill-opacity="1"></use><g><use xlink:href="#d1fx56PNGc" opacity="1" fill-opacity="0" stroke="#000000" stroke-width="1" stroke-opacity="0"></use></g></g><g><use xlink:href="#aIVEfDdZi" opacity="1" fill="#0000ff" fill-opacity="1"></use><g><use xlink:href="#aIVEfDdZi" opacity="1" fill-opacity="0" stroke="#000000" stroke-width="1" stroke-opacity="0"></use></g></g><g><use xlink:href="#f2CrqSULmj" opacity="1" fill="#0000ff" fill-opacity="1"></use><g><use xlink:href="#f2CrqSULmj" opacity="1" fill-opacity="0" stroke="#000000" stroke-width="1" stroke-opacity="0"></use></g></g><g><use xlink:href="#a1Yz4GRX7G" opacity="1" fill="#0000ff" fill-opacity="1"></use><g><use xlink:href="#a1Yz4GRX7G" opacity="1" fill-opacity="0" stroke="#000000" stroke-width="1" stroke-opacity="0"></use></g></g></g></g></svg>