<?xml version="1.0" encoding="UTF-8" standalone="no"?>
<!DOCTYPE svg PUBLIC "-//W3C//DTD SVG 1.1//EN" "http://www.w3.org/Graphics/SVG/1.1/DTD/svg11.dtd">
<svg version="1.1" xmlns="http://www.w3.org/2000/svg" xmlns:xlink="http://www.w3.org/1999/xlink" preserveAspectRatio="xMidYMid meet" viewBox="0 0 800 1400" width="800" height="1400"><defs><path d="M619.37 219.42C619.37 340.44 521.07 438.75 399.95 438.75C278.93 438.75 180.63 340.44 180.63 219.42C180.63 98.3 278.93 0 399.95 0C521.07 0 619.37 98.3 619.37 219.42Z" id="a2xmNvCxJN"></path><path d="M619.37 219.42C619.37 340.44 521.07 438.75 399.95 438.75C278.93 438.75 180.63 340.44 180.63 219.42C180.63 98.3 278.93 0 399.95 0C521.07 0 619.37 98.3 619.37 219.42Z" id="b2XBperPPN"></path><path d="M619.37 219.42C619.37 340.44 521.07 438.75 399.95 438.75C278.93 438.75 180.63 340.44 180.63 219.42C180.63 98.3 278.93 0 399.95 0C521.07 0 619.37 98.3 619.37 219.42Z" id="gKVwh4SK9"></path><path d="M619.37 219.42C619.37 340.44 521.07 438.75 399.95 438.75C278.93 438.75 180.63 340.44 180.63 219.42C180.63 98.3 278.93 0 399.95 0C521.07 0 619.37 98.3 619.37 219.42Z" id="e2cTd66RRo"></path><path d="M619.37 219.42C619.37 340.44 521.07 438.75 399.95 438.75C278.93 438.75 180.63 340.44 180.63 219.42C180.63 98.3 278.93 0 399.95 0C521.07 0 619.37 98.3 619.37 219.42Z" id="b5OgYR2Zb"></path><path d="M619.37 219.42C619.37 340.44 521.07 438.75 399.95 438.75C278.93 438.75 180.63 340.44 180.63 219.42C180.63 98.3 278.93 0 399.95 0C521.07 0 619.37 98.3 619.37 219.42Z" id="a7iSH7jad"></path><path d="M619.37 219.42C619.37 340.44 521.07 438.75 399.95 438.75C278.93 438.75 180.63 340.44 180.63 219.42C180.63 98.3 278.93 0 399.95 0C521.07 0 619.37 98.3 619.37 219.42Z" id="anR6LA5dK"></path><path d="M619.37 219.42C619.37 340.44 521.07 438.75 399.95 438.75C278.93 438.75 180.63 340.44 180.63 219.42C180.63 98.3 278.93 0 399.95 0C521.07 0 619.37 98.3 619.37 219.42Z" id="b16yCRaw0"></path><path d="M538.48 1143.13L376.7 1143.13L376.69 825.28L538.48 825.28L538.48 1143.13Z" id="h3DeTWT85"></path><path d="M423.3 1143.13L261.52 1143.13L261.52 825.28L423.31 825.28L423.3 1143.13Z" id="a65sKZ8th"></path><path d="M538.47 1319.11C538.47 1363.78 502.25 1400 457.58 1400C441.41 1400 473.76 1400 457.58 1400C412.92 1400 376.7 1363.78 376.69 1319.11C376.7 1287.51 376.69 1208.53 376.69 1082.14C409.05 1082.15 522.3 1082.15 538.48 1082.14C538.47 1208.53 538.47 1287.51 538.47 1319.11Z" id="c25JvWJpGM"></path><path d="M423.31 1319.11C423.3 1363.78 387.08 1400 342.42 1400C326.24 1400 358.59 1400 342.42 1400C297.75 1400 261.53 1363.78 261.53 1319.11C261.53 1287.51 261.53 1208.53 261.52 1082.14C293.88 1082.15 407.13 1082.15 423.31 1082.14C423.31 1208.53 423.3 1287.51 423.31 1319.11Z" id="aZKLaEeM4"></path><path d="M538.48 561.68C538.48 644.7 538.48 755.3 538.48 838.33C538.48 914.81 476.48 976.81 400 976.81C372.3 976.81 427.7 976.81 400 976.81C323.52 976.81 261.52 914.81 261.52 838.33C261.52 755.3 261.52 644.7 261.52 561.68C261.52 485.19 323.52 423.2 400 423.2C427.7 423.2 372.3 423.2 400 423.2C476.48 423.2 538.48 485.19 538.48 561.68Z" id="a13rYY6hfk"></path></defs><g><g><g><use xlink:href="#a2xmNvCxJN" opacity="1" fill="#0000ff" fill-opacity="1"></use><g><use xlink:href="#a2xmNvCxJN" opacity="1" fill-opacity="0" stroke="#000000" stroke-width="1" stroke-opacity="0"></use></g></g><g><use xlink:href="#b2XBperPPN" opacity="1" fill="#000000" fill-opacity="0"></use><g><use xlink:href="#b2XBperPPN" opacity="1" fill-opacity="0" stroke="#000000" stroke-width="1" stroke-opacity="0"></use></g></g><g><use xlink:href="#gKVwh4SK9" opacity="1" fill="#000000" fill-opacity="0"></use><g><use xlink:href="#gKVwh4SK9" opacity="1" fill-opacity="0" stroke="#000000" stroke-width="1" stroke-opacity="0"></use></g></g><g><use xlink:href="#e2cTd66RRo" opacity="1" fill="#000000" fill-opacity="0"></use><g><use xlink:href="#e2cTd66RRo" opacity="1" fill-opacity="0" stroke="#000000" stroke-width="1" stroke-opacity="0"></use></g></g><g><use xlink:href="#b5OgYR2Zb" opacity="1" fill="#000000" fill-opacity="0"></use><g><use xlink:href="#b5OgYR2Zb" opacity="1" fill-opacity="0" stroke="#000000" stroke-width="1" stroke-opacity="0"></use></g></g><g><use xlink:href="#a7iSH7jad" opacity="1" fill="#000000" fill-opacity="0"></use><g><use xlink:href="#a7iSH7jad" opacity="1" fill-opacity="0" stroke="#000000" stroke-width="1" stroke-opacity="0"></use></g></g><g><use xlink:href="#anR6LA5dK" opacity="1" fill="#000000" fill-opacity="0"></use><g><use xlink:href="#anR6LA5dK" opacity="1" fill-opacity="0" stroke="#000000" stroke-width="1" stroke-opacity="0"></use></g></g><g><use xlink:href="#b16yCRaw0" opacity="1" fill="#000000" fill-opacity="0"></use><g><use xlink:href="#b16yCRaw0" opacity="1" fill-opacity="0" stroke="#000000" stroke-width="1" stroke-opacity="0"></use></g></g><g><use xlink:href="#h3DeTWT85" opacity="1" fill="#0000ff" fill-opacity="1"></use><g><use xlink:href="#h3DeTWT85" opacity="1" fill-opacity="0" stroke="#000000" stroke-width="1" stroke-opacity="0"></use></g></g><g><use xlink:href="#a65sKZ8th" opacity="1" fill="#0000ff" fill-opacity="1"></use><g><use xlink:href="#a65sKZ8th" opacity="1" fill-opacity="0" stroke="#000000" stroke-width="1" stroke-opacity="0"></use></g></g><g><use xlink:href="#c25JvWJpGM" opacity="1" fill="#0000ff" fill-opacity="1"></use><g><use xlink:href="#c25JvWJpGM" opacity="1" fill-opacity="0" stroke="#000000" stroke-width="1" stroke-opacity="0"></use></g></g><g><use xlink:href="#aZKLaEeM4" opacity="1" fill="#0000ff" fill-opacity="1"></use><g><use xlink:href="#aZKLaEeM4" opacity="1" fill-opacity="0" stroke="#000000" stroke-width="1" stroke-opacity="0"></use></g></g><g><use xlink:href="#a13rYY6hfk" opacity="1" fill="#0000ff" fill-opacity="1"></use><g><use xlink:href="#a13rYY6hfk" opacity="1" fill-opacity="0" stroke="#000000" stroke-width="1" stroke-opacity="0"></use></g></g></g></g></svg>