<?xml version="1.0" encoding="UTF-8" standalone="no"?>
<!DOCTYPE svg PUBLIC "-//W3C//DTD SVG 1.1//EN" "http://www.w3.org/Graphics/SVG/1.1/DTD/svg11.dtd">
<svg version="1.1" xmlns="http://www.w3.org/2000/svg" xmlns:xlink="http://www.w3.org/1999/xlink" preserveAspectRatio="xMidYMid meet" viewBox="0 0 800 1400" width="800" height="1400"><defs><path d="M399.95 438.75C278.93 438.75 180.63 340.44 180.63 219.42C180.63 98.3 278.93 0 399.95 0C521.07 0 619.37 98.3 619.37 219.42C619.37 340.44 521.07 438.75 399.95 438.75Z" id="f1pqE7yioy"></path><path d="M526.06 1166.74L301.3 941.99L415.7 827.59L640.46 1052.34L526.06 1166.74Z" id="bFjCJw5TU"></path><path d="M195.52 1140.72L277.78 833.7L434.06 875.57L351.78 1182.59L195.52 1140.72Z" id="b1Oc4O3nI"></path><path d="M559.56 1370.25C543.39 1370.25 575.74 1370.25 559.56 1370.25C514.9 1370.25 478.68 1334.03 478.67 1289.36C478.68 1257.76 478.67 1178.78 478.67 1052.39C511.03 1052.4 624.28 1052.4 640.46 1052.39C640.45 1178.78 640.45 1257.76 640.45 1289.36C640.45 1334.03 604.23 1370.25 559.56 1370.25Z" id="b1oYeDsyby"></path><path d="M56.19 1057.14C60.38 1041.51 52.01 1072.75 56.19 1057.14C67.75 1013.99 112.11 988.38 155.26 999.94C185.79 1008.12 262.07 1028.56 384.16 1061.26C375.77 1092.51 346.46 1201.91 342.29 1217.54C220.2 1184.83 143.92 1164.37 113.39 1156.2C70.24 1144.63 44.63 1100.27 56.19 1057.14Z" id="cgBYve2qF"></path><path d="M538.48 838.33C538.48 914.81 476.48 976.81 400 976.81C372.3 976.81 427.7 976.81 400 976.81C323.52 976.81 261.52 914.81 261.52 838.33C261.52 755.3 261.52 644.7 261.52 561.68C261.52 485.19 323.52 423.2 400 423.2C427.7 423.2 372.3 423.2 400 423.2C476.48 423.2 538.48 485.19 538.48 561.68C538.48 644.7 538.48 755.3 538.48 838.33Z" id="a1Yz4GRX7G"></path></defs><g><g><g><use xlink:href="#f1pqE7yioy" opacity="1" fill="#0000ff" fill-opacity="1"></use><g><use xlink:href="#f1pqE7yioy" opacity="1" fill-opacity="0" stroke="#000000" stroke-width="1" stroke-opacity="0"></use></g></g><g><use xlink:href="#bFjCJw5TU" opacity="1" fill="#0000ff" fill-opacity="1"></use><g><use xlink:href="#bFjCJw5TU" opacity="1" fill-opacity="0" stroke="#000000" stroke-width="1" stroke-opacity="0"></use></g></g><g><use xlink:href="#b1Oc4O3nI" opacity="1" fill="#0000ff" fill-opacity="1"></use><g><use xlink:href="#b1Oc4O3nI" opacity="1" fill-opacity="0" stroke="#000000" stroke-width="1" stroke-opacity="0"></use></g></g><g><use xlink:href="#b1oYeDsyby" opacity="1" fill="#0000ff" fill-opacity="1"></use><g><use xlink:href="#b1oYeDsyby" opacity="1" fill-opacity="0" stroke="#000000" stroke-width="1" stroke-opacity="0"></use></g></g><g><use xlink:href="#cgBYve2qF" opacity="1" fill="#0000ff" fill-opacity="1"></use><g><use xlink:href="#cgBYve2qF" opacity="1" fill-opacity="0" stroke="#000000" stroke-width="1" stroke-opacity="0"></use></g></g><g><use xlink:href="#a1Yz4GRX7G" opacity="1" fill="#0000ff" fill-opacity="1"></use><g><use xlink:href="#a1Yz4GRX7G" opacity="1" fill-opacity="0" stroke="#000000" stroke-width="1" stroke-opacity="0"></use></g></g></g></g></svg>